<mxfile host="app.diagrams.net" modified="2023-11-05T01:33:28.393Z" agent="Mozilla/5.0 (Windows NT 10.0; Win64; x64) AppleWebKit/537.36 (KHTML, like Gecko) Chrome/119.0.0.0 Safari/537.36" etag="urkEh5TLwdRX7_epmEso" version="22.0.8" type="github">
  <diagram name="第 1 页" id="r4QmuIkt1M2tzLP9n4CH">
    <mxGraphModel dx="842" dy="508" grid="1" gridSize="10" guides="1" tooltips="1" connect="1" arrows="1" fold="1" page="1" pageScale="1" pageWidth="827" pageHeight="1169" math="0" shadow="0">
      <root>
        <mxCell id="0" />
        <mxCell id="1" parent="0" />
        <mxCell id="Lg4Z6j4XolRpocaOgxEr-4" value="&lt;span style=&quot;background-color: rgb(213, 232, 212); font-size: 8px;&quot;&gt;Bluefield-X DPU&lt;/span&gt;" style="rounded=1;whiteSpace=wrap;html=1;fontStyle=3;fontFamily=Times New Roman;labelBackgroundColor=default;labelBorderColor=none;verticalAlign=top;fillColor=#d5e8d4;strokeColor=#82b366;shadow=1;fontSize=8;container=0;" vertex="1" parent="1">
          <mxGeometry x="170" y="200" width="230.00000000000003" height="110.00000000000001" as="geometry" />
        </mxCell>
        <mxCell id="Lg4Z6j4XolRpocaOgxEr-5" value="&lt;font style=&quot;font-size: 8px;&quot;&gt;&lt;span style=&quot;font-size: 8px;&quot;&gt;&lt;span style=&quot;font-size: 8px;&quot;&gt;主机侧&lt;br style=&quot;font-size: 8px;&quot;&gt;&lt;/span&gt;&lt;/span&gt;&lt;/font&gt;" style="rounded=1;html=1;fillColor=#fff2cc;strokeColor=#d6b656;direction=west;fontStyle=3;verticalAlign=middle;horizontal=0;whiteSpace=wrap;fontSize=8;fontFamily=Times New Roman;container=0;" vertex="1" parent="1">
          <mxGeometry x="173" y="216" width="19.17" height="79" as="geometry" />
        </mxCell>
        <mxCell id="Lg4Z6j4XolRpocaOgxEr-6" value="&lt;font style=&quot;font-size: 8px;&quot;&gt;eSwitch&lt;br&gt;&lt;span style=&quot;font-size: 8px;&quot;&gt;&lt;span style=&quot;font-size: 8px;&quot;&gt;ASIC线性流水线&lt;br style=&quot;font-size: 8px;&quot;&gt;&lt;/span&gt;&lt;/span&gt;&lt;/font&gt;" style="rounded=1;html=1;fillColor=#fff2cc;strokeColor=#d6b656;direction=north;fontStyle=3;verticalAlign=middle;horizontal=1;whiteSpace=wrap;fontSize=8;fontFamily=Times New Roman;container=0;" vertex="1" parent="1">
          <mxGeometry x="220" y="265.5" width="170" height="29" as="geometry" />
        </mxCell>
        <mxCell id="Lg4Z6j4XolRpocaOgxEr-7" value="&lt;font style=&quot;font-size: 8px;&quot;&gt;&lt;span style=&quot;font-size: 8px;&quot;&gt;&lt;span style=&quot;font-size: 8px;&quot;&gt;Arm子系统&lt;br style=&quot;font-size: 8px;&quot;&gt;&lt;/span&gt;&lt;/span&gt;&lt;/font&gt;" style="rounded=1;html=1;fillColor=#fff2cc;strokeColor=#d6b656;direction=north;fontStyle=3;verticalAlign=middle;horizontal=1;whiteSpace=wrap;fontSize=8;fontFamily=Times New Roman;container=0;" vertex="1" parent="1">
          <mxGeometry x="307.5" y="219.66000000000003" width="82.5" height="30" as="geometry" />
        </mxCell>
        <mxCell id="Lg4Z6j4XolRpocaOgxEr-8" value="&lt;font style=&quot;font-size: 8px;&quot;&gt;&lt;span style=&quot;font-size: 8px;&quot;&gt;&lt;span style=&quot;font-size: 8px;&quot;&gt;&lt;br style=&quot;font-size: 8px;&quot;&gt;&lt;/span&gt;&lt;/span&gt;&lt;/font&gt;" style="rounded=1;html=1;fillColor=#fff2cc;strokeColor=#d6b656;direction=north;fontStyle=3;verticalAlign=middle;horizontal=1;whiteSpace=wrap;fontSize=8;fontFamily=Times New Roman;container=0;" vertex="1" parent="1">
          <mxGeometry x="220" y="221.5" width="68.05" height="19.17" as="geometry" />
        </mxCell>
        <mxCell id="Lg4Z6j4XolRpocaOgxEr-9" value="&lt;font style=&quot;font-size: 8px;&quot;&gt;&lt;span style=&quot;font-size: 8px;&quot;&gt;&lt;span style=&quot;font-size: 8px;&quot;&gt;加速器&lt;br style=&quot;font-size: 8px;&quot;&gt;&lt;/span&gt;&lt;/span&gt;&lt;/font&gt;" style="rounded=1;html=1;fillColor=#fff2cc;strokeColor=#d6b656;direction=north;fontStyle=3;verticalAlign=middle;horizontal=1;whiteSpace=wrap;fontSize=8;fontFamily=Times New Roman;container=0;" vertex="1" parent="1">
          <mxGeometry x="230" y="231.5" width="68.05" height="19.17" as="geometry" />
        </mxCell>
        <mxCell id="Lg4Z6j4XolRpocaOgxEr-10" value="" style="shape=doubleArrow;direction=south;whiteSpace=wrap;html=1;fontFamily=Times New Roman;fontStyle=3;container=0;" vertex="1" parent="1">
          <mxGeometry x="350" y="242.67000000000002" width="10" height="30" as="geometry" />
        </mxCell>
        <mxCell id="Lg4Z6j4XolRpocaOgxEr-11" value="" style="shape=doubleArrow;direction=south;whiteSpace=wrap;html=1;rotation=90;fontFamily=Times New Roman;fontStyle=3;container=0;" vertex="1" parent="1">
          <mxGeometry x="201" y="260.77" width="10" height="38.47" as="geometry" />
        </mxCell>
        <mxCell id="Lg4Z6j4XolRpocaOgxEr-47" value="" style="shape=singleArrow;whiteSpace=wrap;html=1;" vertex="1" parent="1">
          <mxGeometry x="390" y="270" width="50" height="20" as="geometry" />
        </mxCell>
        <mxCell id="Lg4Z6j4XolRpocaOgxEr-48" value="" style="shape=singleArrow;whiteSpace=wrap;html=1;rotation=90;" vertex="1" parent="1">
          <mxGeometry x="280" y="310" width="50" height="20" as="geometry" />
        </mxCell>
        <mxCell id="Lg4Z6j4XolRpocaOgxEr-50" value="流水线pipe&lt;br&gt;丢弃异常五元组数据" style="rounded=1;whiteSpace=wrap;html=1;fillColor=#fff2cc;strokeColor=#d6b656;" vertex="1" parent="1">
          <mxGeometry x="240" y="346" width="130" height="60" as="geometry" />
        </mxCell>
        <mxCell id="Lg4Z6j4XolRpocaOgxEr-51" value="流水线pipeline&lt;br&gt;设置元数据硬件识别流" style="rounded=1;whiteSpace=wrap;html=1;fillColor=#e1d5e7;strokeColor=#9673a6;" vertex="1" parent="1">
          <mxGeometry x="440" y="250.67" width="130" height="60" as="geometry" />
        </mxCell>
      </root>
    </mxGraphModel>
  </diagram>
</mxfile>
